# xmcd
#
# Track frame offsets:
#	150
#	19386
#	36898
#	51422
#	64579
#	80279
#	93974
#	109025
#	121249
#	156901
#	172052
#
# Disc length: 2500 seconds
#
# Revision: 0
# Processed by: cddbd v1.5.2PL0 Copyright (c) Steve Scherf et al.
# Submitted via: SynApp - FreeCDDB Version: 2.2
#
DISCID=8c09c20b
DTITLE=The Blues Brothers - Music from the Soundtrack
DYEAR=1980
DGENRE=Blues
TTITLE0=The Blues Brothers - She Caught The Katy
TTITLE1=The Blues Brothers - Peter Gunn Theme
TTITLE2=The Blues Brothers - Gimme Some Lovin'
TTITLE3=The Blues Brothers - Shake A Tailfeather
TTITLE4=The Blues Brothers - Everybody Needs Somebody To Lo
TTITLE5=The Blues Brothers - The Old Landmark
TTITLE6=The Blues Brothers - Think
TTITLE7=The Blues Brothers - Theme From Rawhide
TTITLE8=The Blues Brothers - Minnie The Moocher
TTITLE9=The Blues Brothers - Sweet Home Chicago
TTITLE10=The Blues Brothers - Jailhouse Rock
EXTD=
EXTT0=
EXTT1=
EXTT2=
EXTT3=
EXTT4=
EXTT5=
EXTT6=
EXTT7=
EXTT8=
EXTT9=
EXTT10=
PLAYORDER=
